<mxfile host="app.diagrams.net" modified="2023-10-04T17:38:50.893Z" agent="Mozilla/5.0 (Windows NT 10.0; Win64; x64) AppleWebKit/537.36 (KHTML, like Gecko) Chrome/117.0.0.0 Safari/537.36 Edg/117.0.2045.47" etag="iIWltv6vXnXMBmhoQ0gp" version="22.0.2" type="device">
  <diagram name="Página-1" id="YDRBUx42sXzI5LNJQjgc">
    <mxGraphModel dx="389" dy="480" grid="1" gridSize="10" guides="1" tooltips="1" connect="1" arrows="1" fold="1" page="1" pageScale="1" pageWidth="827" pageHeight="1169" math="0" shadow="0">
      <root>
        <mxCell id="0" />
        <mxCell id="1" parent="0" />
        <mxCell id="TvtRDDA3BJZ0iox3KKef-2" value="MEDICOS" style="rounded=0;whiteSpace=wrap;html=1;" vertex="1" parent="1">
          <mxGeometry x="294" y="60" width="120" height="60" as="geometry" />
        </mxCell>
        <mxCell id="TvtRDDA3BJZ0iox3KKef-4" value="&lt;u&gt;DNI&lt;/u&gt;" style="ellipse;whiteSpace=wrap;html=1;" vertex="1" parent="1">
          <mxGeometry x="440" y="50" width="120" height="80" as="geometry" />
        </mxCell>
        <mxCell id="TvtRDDA3BJZ0iox3KKef-5" value="NOMBRE Y APELLIDOS" style="ellipse;whiteSpace=wrap;html=1;" vertex="1" parent="1">
          <mxGeometry x="150" y="50" width="120" height="80" as="geometry" />
        </mxCell>
        <mxCell id="TvtRDDA3BJZ0iox3KKef-6" value="ATIENDEN" style="rhombus;whiteSpace=wrap;html=1;" vertex="1" parent="1">
          <mxGeometry x="289" y="180" width="130" height="80" as="geometry" />
        </mxCell>
        <mxCell id="TvtRDDA3BJZ0iox3KKef-7" value="PACIENTES" style="rounded=0;whiteSpace=wrap;html=1;" vertex="1" parent="1">
          <mxGeometry x="294" y="310" width="120" height="60" as="geometry" />
        </mxCell>
        <mxCell id="TvtRDDA3BJZ0iox3KKef-8" value="&lt;u&gt;NUMERO HISTORIA CLÍNICA&lt;/u&gt;" style="ellipse;whiteSpace=wrap;html=1;" vertex="1" parent="1">
          <mxGeometry x="440" y="310" width="120" height="80" as="geometry" />
        </mxCell>
        <mxCell id="TvtRDDA3BJZ0iox3KKef-9" value="NOMBRE Y APELLIDOS" style="ellipse;whiteSpace=wrap;html=1;" vertex="1" parent="1">
          <mxGeometry x="150" y="310" width="120" height="80" as="geometry" />
        </mxCell>
        <mxCell id="TvtRDDA3BJZ0iox3KKef-11" value="PADECEN" style="rhombus;whiteSpace=wrap;html=1;" vertex="1" parent="1">
          <mxGeometry x="290" y="410" width="120" height="80" as="geometry" />
        </mxCell>
        <mxCell id="TvtRDDA3BJZ0iox3KKef-12" value="ENFERMEDADES" style="rounded=0;whiteSpace=wrap;html=1;" vertex="1" parent="1">
          <mxGeometry x="289" y="540" width="120" height="60" as="geometry" />
        </mxCell>
        <mxCell id="TvtRDDA3BJZ0iox3KKef-13" value="&lt;u&gt;NUMERO&lt;/u&gt;" style="ellipse;whiteSpace=wrap;html=1;" vertex="1" parent="1">
          <mxGeometry x="430" y="585" width="120" height="80" as="geometry" />
        </mxCell>
        <mxCell id="TvtRDDA3BJZ0iox3KKef-14" value="NOMBRE TÉCNICO" style="ellipse;whiteSpace=wrap;html=1;" vertex="1" parent="1">
          <mxGeometry x="140" y="585" width="120" height="80" as="geometry" />
        </mxCell>
        <mxCell id="TvtRDDA3BJZ0iox3KKef-15" value="NOMBRE COMÚN" style="ellipse;whiteSpace=wrap;html=1;" vertex="1" parent="1">
          <mxGeometry x="289" y="660" width="120" height="80" as="geometry" />
        </mxCell>
        <mxCell id="TvtRDDA3BJZ0iox3KKef-16" value="" style="endArrow=none;html=1;rounded=0;exitX=0.5;exitY=0;exitDx=0;exitDy=0;" edge="1" parent="1" source="TvtRDDA3BJZ0iox3KKef-15">
          <mxGeometry width="50" height="50" relative="1" as="geometry">
            <mxPoint x="300" y="650" as="sourcePoint" />
            <mxPoint x="350" y="600" as="targetPoint" />
          </mxGeometry>
        </mxCell>
        <mxCell id="TvtRDDA3BJZ0iox3KKef-17" value="" style="endArrow=none;html=1;rounded=0;entryX=0;entryY=0.75;entryDx=0;entryDy=0;exitX=1;exitY=0;exitDx=0;exitDy=0;" edge="1" parent="1" source="TvtRDDA3BJZ0iox3KKef-14" target="TvtRDDA3BJZ0iox3KKef-12">
          <mxGeometry width="50" height="50" relative="1" as="geometry">
            <mxPoint x="320" y="680" as="sourcePoint" />
            <mxPoint x="370" y="630" as="targetPoint" />
          </mxGeometry>
        </mxCell>
        <mxCell id="TvtRDDA3BJZ0iox3KKef-18" value="" style="endArrow=none;html=1;rounded=0;entryX=1;entryY=0.75;entryDx=0;entryDy=0;exitX=0;exitY=0;exitDx=0;exitDy=0;" edge="1" parent="1" source="TvtRDDA3BJZ0iox3KKef-13" target="TvtRDDA3BJZ0iox3KKef-12">
          <mxGeometry width="50" height="50" relative="1" as="geometry">
            <mxPoint x="320" y="680" as="sourcePoint" />
            <mxPoint x="370" y="630" as="targetPoint" />
          </mxGeometry>
        </mxCell>
        <mxCell id="TvtRDDA3BJZ0iox3KKef-19" value="" style="endArrow=none;html=1;rounded=0;entryX=0.5;entryY=1;entryDx=0;entryDy=0;exitX=0.5;exitY=0;exitDx=0;exitDy=0;" edge="1" parent="1" source="TvtRDDA3BJZ0iox3KKef-12" target="TvtRDDA3BJZ0iox3KKef-11">
          <mxGeometry width="50" height="50" relative="1" as="geometry">
            <mxPoint x="320" y="520" as="sourcePoint" />
            <mxPoint x="370" y="470" as="targetPoint" />
          </mxGeometry>
        </mxCell>
        <mxCell id="TvtRDDA3BJZ0iox3KKef-20" value="" style="endArrow=none;html=1;rounded=0;entryX=0.5;entryY=1;entryDx=0;entryDy=0;exitX=0.5;exitY=0;exitDx=0;exitDy=0;" edge="1" parent="1" source="TvtRDDA3BJZ0iox3KKef-11" target="TvtRDDA3BJZ0iox3KKef-7">
          <mxGeometry width="50" height="50" relative="1" as="geometry">
            <mxPoint x="320" y="520" as="sourcePoint" />
            <mxPoint x="370" y="470" as="targetPoint" />
          </mxGeometry>
        </mxCell>
        <mxCell id="TvtRDDA3BJZ0iox3KKef-21" value="" style="endArrow=none;html=1;rounded=0;entryX=1;entryY=0.5;entryDx=0;entryDy=0;exitX=0;exitY=0.5;exitDx=0;exitDy=0;" edge="1" parent="1" source="TvtRDDA3BJZ0iox3KKef-8" target="TvtRDDA3BJZ0iox3KKef-7">
          <mxGeometry width="50" height="50" relative="1" as="geometry">
            <mxPoint x="320" y="520" as="sourcePoint" />
            <mxPoint x="370" y="470" as="targetPoint" />
          </mxGeometry>
        </mxCell>
        <mxCell id="TvtRDDA3BJZ0iox3KKef-22" value="" style="endArrow=none;html=1;rounded=0;entryX=0;entryY=0.5;entryDx=0;entryDy=0;exitX=1;exitY=0.5;exitDx=0;exitDy=0;" edge="1" parent="1" source="TvtRDDA3BJZ0iox3KKef-9" target="TvtRDDA3BJZ0iox3KKef-7">
          <mxGeometry width="50" height="50" relative="1" as="geometry">
            <mxPoint x="320" y="520" as="sourcePoint" />
            <mxPoint x="370" y="470" as="targetPoint" />
          </mxGeometry>
        </mxCell>
        <mxCell id="TvtRDDA3BJZ0iox3KKef-23" value="" style="endArrow=none;html=1;rounded=0;exitX=0.5;exitY=0;exitDx=0;exitDy=0;entryX=0.5;entryY=1;entryDx=0;entryDy=0;" edge="1" parent="1" source="TvtRDDA3BJZ0iox3KKef-6" target="TvtRDDA3BJZ0iox3KKef-2">
          <mxGeometry width="50" height="50" relative="1" as="geometry">
            <mxPoint x="310" y="170" as="sourcePoint" />
            <mxPoint x="360" y="120" as="targetPoint" />
          </mxGeometry>
        </mxCell>
        <mxCell id="TvtRDDA3BJZ0iox3KKef-24" value="" style="endArrow=none;html=1;rounded=0;entryX=1;entryY=0.5;entryDx=0;entryDy=0;exitX=0;exitY=0.5;exitDx=0;exitDy=0;" edge="1" parent="1" source="TvtRDDA3BJZ0iox3KKef-4" target="TvtRDDA3BJZ0iox3KKef-2">
          <mxGeometry width="50" height="50" relative="1" as="geometry">
            <mxPoint x="320" y="200" as="sourcePoint" />
            <mxPoint x="370" y="150" as="targetPoint" />
          </mxGeometry>
        </mxCell>
        <mxCell id="TvtRDDA3BJZ0iox3KKef-25" value="" style="endArrow=none;html=1;rounded=0;entryX=0;entryY=0.5;entryDx=0;entryDy=0;exitX=1;exitY=0.5;exitDx=0;exitDy=0;" edge="1" parent="1" source="TvtRDDA3BJZ0iox3KKef-5" target="TvtRDDA3BJZ0iox3KKef-2">
          <mxGeometry width="50" height="50" relative="1" as="geometry">
            <mxPoint x="320" y="200" as="sourcePoint" />
            <mxPoint x="370" y="150" as="targetPoint" />
          </mxGeometry>
        </mxCell>
        <mxCell id="TvtRDDA3BJZ0iox3KKef-26" value="" style="endArrow=none;html=1;rounded=0;entryX=0.5;entryY=1;entryDx=0;entryDy=0;exitX=0.5;exitY=0;exitDx=0;exitDy=0;" edge="1" parent="1" source="TvtRDDA3BJZ0iox3KKef-7" target="TvtRDDA3BJZ0iox3KKef-6">
          <mxGeometry width="50" height="50" relative="1" as="geometry">
            <mxPoint x="300" y="300" as="sourcePoint" />
            <mxPoint x="350" y="250" as="targetPoint" />
          </mxGeometry>
        </mxCell>
        <mxCell id="TvtRDDA3BJZ0iox3KKef-27" value="MEDICOS(&lt;u&gt;DNI&lt;/u&gt; ,NOMBRE,APELLIDOS)" style="text;html=1;strokeColor=none;fillColor=none;align=center;verticalAlign=middle;whiteSpace=wrap;rounded=0;" vertex="1" parent="1">
          <mxGeometry x="590" y="130" width="190" height="90" as="geometry" />
        </mxCell>
        <mxCell id="TvtRDDA3BJZ0iox3KKef-28" value="PACIENTES (&lt;u&gt;Nº HISTORIAL MEDICO,&lt;/u&gt; NOMBRE,APELLIDO, DNI MEDICO, CODIGO ENFERMEDAD)" style="text;html=1;strokeColor=none;fillColor=none;align=center;verticalAlign=middle;whiteSpace=wrap;rounded=0;" vertex="1" parent="1">
          <mxGeometry x="590" y="240" width="170" height="120" as="geometry" />
        </mxCell>
        <mxCell id="TvtRDDA3BJZ0iox3KKef-29" value="ENFERMEDADES( NOMBRE TECNICO , &lt;u&gt;NÚMERO&lt;/u&gt; , NOMBRE COMÚN)" style="text;html=1;strokeColor=none;fillColor=none;align=center;verticalAlign=middle;whiteSpace=wrap;rounded=0;" vertex="1" parent="1">
          <mxGeometry x="590" y="430" width="200" height="90" as="geometry" />
        </mxCell>
        <mxCell id="TvtRDDA3BJZ0iox3KKef-30" value="PACIENTE--&amp;gt; DNI MEDICO---&amp;gt;MEDICO&lt;br&gt;PACIENTE--&amp;gt;CODIGO ENFERMEDAD --&amp;gt;ENFERMEDAD" style="text;html=1;strokeColor=none;fillColor=none;align=center;verticalAlign=middle;whiteSpace=wrap;rounded=0;" vertex="1" parent="1">
          <mxGeometry x="600" y="640" width="200" height="60" as="geometry" />
        </mxCell>
        <mxCell id="TvtRDDA3BJZ0iox3KKef-31" value="CLAVE AJENA" style="text;html=1;strokeColor=none;fillColor=none;align=center;verticalAlign=middle;whiteSpace=wrap;rounded=0;" vertex="1" parent="1">
          <mxGeometry x="645" y="600" width="60" height="30" as="geometry" />
        </mxCell>
      </root>
    </mxGraphModel>
  </diagram>
</mxfile>
